<?xml version="1.0" encoding="UTF-8" standalone="no"?>
<!-- Created with Inkscape (http://www.inkscape.org/) -->

<svg
   version="1.1"
   id="svg10"
   width="990"
   height="642"
   viewBox="0 0 990 642"
   xmlns="http://www.w3.org/2000/svg"
   xmlns:svg="http://www.w3.org/2000/svg">
  <defs
     id="defs14" />
  <g
     id="layer3"
     style="stroke:#000000">
    <path
       style="display:inline;opacity:1;fill:#d35f5f;fill-opacity:1;stroke:#d35f5f"
       d="M 447.38931,127.90649 H 418.67176 V 97.48855 c 0,0 0,-10.391222 16.05916,-10.391222 16.05916,0 122.23855,0 122.23855,0 0,0 13.22519,0.755726 13.22519,18.137402 0,17.38168 0,23.99428 0,23.99428 h -28.3397 v -10.39122 c 0,0 1.70038,-8.87977 -9.82443,-8.87977 -11.5248,0 -72.54961,0 -72.54961,0 0,0 -12.17747,-1.05318 -12.17747,7.03066 0,8.08384 0.0859,10.91781 0.0859,10.91781 z"
       id="path1593" />
    <path
       style="display:inline;opacity:1;fill:#d35f5f;fill-opacity:1;stroke:#d35f5f"
       d="M 441.66375,251.69223 V 134.39617 h -19.772 v 113.28822 l -5.87816,-0.80157 v 63.59103 c 0,0 8.55005,-0.80156 8.55005,7.74849 0,8.55006 0,24.04703 0,24.04703 0,0 1.60314,4.67581 -4.67581,4.67581 -6.27894,0 -26.85251,0 -26.85251,0 0,0 -4.62074,0.60304 -4.62074,-4.62073 0,-5.22378 0,-27.09258 0,-27.09258 0,0 -0.23616,-4.02887 4.02888,-4.02887 4.26503,0 4.3595,0 4.3595,0 v -63.2779 c 0,0 -45.57968,2.03101 -64.85067,71.93559 -19.27099,69.90458 44.58779,128.28435 44.58779,128.28435 0,0 18.63275,16.2298 18.96674,16.0962 0.33399,-0.13359 0,-110.74992 0,-110.74992 h 21.30834 v 126.91487 c 0,0 44.4606,23.75698 76.67339,56.53656 l 1.27906,1.17631 c 0,0 41.98621,-41.79654 75.04918,-56.72211 l 4.24475,-2.45071 V 353.30153 h 19.74953 v 111.0916 c 0,0 64.80343,-48.55534 65.55916,-108.44656 0.75572,-59.89123 -22.86069,-96.92176 -63.48092,-107.87978 h -2.07824 v 62.27347 c 0,0 8.46543,-0.37815 8.46543,4.88752 0,5.26567 0,27.97675 0,27.97675 0,0 0.84181,4.00844 -6.94281,4.00844 -7.78463,0 -24.88474,0 -24.88474,0 0,0 -4.8765,0.26719 -4.8765,-4.8765 0,-5.14369 0,-28.25556 0,-28.25556 0,0 1.32282,-3.17795 5.50436,-3.17795 4.18155,0 2.8456,0 2.8456,0 v -65.08889 c 0,0 -6.14535,0.26719 -6.14535,1.33594 0,1.06876 0,-112.06413 0,-112.06413 h -19.21504 v 117.1374 c 0,0 -28.71755,11.99714 -49.68893,29.85115 l -4.06202,3.68416 c 0,0 -22.50361,-23.6394 -53.14732,-34.06636 z"
       id="path3937" />
    <path
       style="opacity:1;fill:#d35f5f;fill-opacity:1;stroke:#d35f5f"
       d="m 395.81107,340.4542 h 6.70706 c 0,0 1.31913,-0.0118 1.31913,-0.7616 0,-0.74985 0,-11.80233 0,-11.80233 0,0 0.74725,-1.3893 2.40633,-1.3893 1.65908,0 1.99652,0.80889 1.99652,1.99652 0,1.18763 0,11.29545 0,11.29545 0,0 0.048,0.76182 1.3195,0.76182 1.2715,0 6.84497,0 6.84497,0 0,0 0.9578,0.27786 0.9578,-1.65896 0,-1.93683 0,-19.41298 0,-19.41298 0,0 0.0255,-0.97814 -1.69419,-0.97814 -1.71972,0 -19.00693,0 -19.00693,0 0,0 -1.5377,0.003 -1.5377,2.66337 0,2.66019 0,18.71936 0,18.71936 0,0 -0.0682,0.56679 0.68751,0.56679 z"
       id="path3939" />
    <path
       style="opacity:1;fill:#d35f5f;fill-opacity:1;stroke:#d35f5f"
       d="m 573.17752,340.41786 h 6.70706 c 0,0 1.31913,-0.0118 1.31913,-0.7616 0,-0.74985 0,-11.80233 0,-11.80233 0,0 0.74725,-1.3893 2.40633,-1.3893 1.65908,0 1.99652,0.80889 1.99652,1.99652 0,1.18763 0,11.29545 0,11.29545 0,0 0.048,0.76182 1.3195,0.76182 1.2715,0 6.84497,0 6.84497,0 0,0 0.9578,0.27786 0.9578,-1.65896 0,-1.93683 0,-19.41298 0,-19.41298 0,0 0.0255,-0.97814 -1.69419,-0.97814 -1.71972,0 -19.00693,0 -19.00693,0 0,0 -1.5377,0.003 -1.5377,2.66337 0,2.66019 0,18.71936 0,18.71936 0,0 -0.0682,0.56679 0.68751,0.56679 z"
       id="path3939-0" />
    <circle
       style="opacity:1;fill:#d35f5f;fill-opacity:1;stroke:#d35f5f"
       id="path4082"
       cx="405.91888"
       cy="370.35257"
       r="2.7395039" />
    <circle
       style="opacity:1;fill:#d35f5f;fill-opacity:1;stroke:#d35f5f"
       id="path4082-7"
       cx="406.10782"
       cy="396"
       r="2.7395039" />
    <circle
       style="opacity:1;fill:#d35f5f;fill-opacity:1;stroke:#d35f5f"
       id="path4082-70"
       cx="583.93939"
       cy="396.23618"
       r="2.7395039" />
    <circle
       style="display:inline;opacity:1;fill:#d35f5f;fill-opacity:1;stroke:#d35f5f"
       id="path4082-8"
       cx="583.60876"
       cy="370.02194"
       r="2.7395039" />
  </g>
</svg>
